<svg width="28" height="21" viewBox="0 0 28 21" fill="none" xmlns="http://www.w3.org/2000/svg">
<path fill-rule="evenodd" clip-rule="evenodd" d="M28 10.5029C28 10.7941 27.8946 11.0734 27.7071 11.2792C27.5196 11.4851 27.2653 11.6008 27.0001 11.6008L3.41557 11.6008L9.70917 18.5088C9.89693 18.7149 10.0024 18.9945 10.0024 19.2861C10.0024 19.5776 9.89693 19.8572 9.70917 20.0634C9.52141 20.2695 9.26675 20.3853 9.00121 20.3853C8.73568 20.3853 8.48102 20.2695 8.29326 20.0634L0.293768 11.2802C0.200647 11.1782 0.126768 11.0571 0.0763588 10.9237C0.0259476 10.7903 0 10.6473 0 10.5029C0 10.3585 0.0259476 10.2155 0.0763588 10.0821C0.126768 9.94875 0.200647 9.82759 0.293768 9.72561L8.29326 0.942455C8.48102 0.7363 8.73568 0.620483 9.00121 0.620483C9.26675 0.620483 9.52141 0.7363 9.70917 0.942455C9.89693 1.14861 10.0024 1.42822 10.0024 1.71976C10.0024 2.01131 9.89693 2.29092 9.70917 2.49707L3.41557 9.40502L27.0001 9.40502C27.2653 9.40502 27.5196 9.52069 27.7071 9.72659C27.8946 9.93248 28 10.2117 28 10.5029Z" fill="black"/>
</svg>
