<svg width="52" height="52" viewBox="0 0 52 52" fill="none" xmlns="http://www.w3.org/2000/svg">
<path d="M40.7441 1H10.6786C5.33327 1 1 5.33327 1 10.6786V40.7441C1 46.0895 5.33327 50.4228 10.6786 50.4228H40.7441C46.0895 50.4228 50.4228 46.0895 50.4228 40.7441V10.6786C50.4228 5.33327 46.0895 1 40.7441 1Z" fill="white" stroke="black" stroke-width="1.23557"/>
<path d="M9.64721 31.782C12.0033 28.2184 18.6644 22.9156 26.4602 30.2126C34.2562 37.5097 40.7804 32.2196 43.0683 28.6624M9.23535 22.9271C11.5914 19.3636 18.2525 14.0607 26.0483 21.3577C33.8444 28.6548 40.3686 23.3647 42.6564 19.8075" stroke="black" stroke-width="1.23557" stroke-linecap="round" stroke-linejoin="round"/>
</svg>
