<svg width="322" height="158" viewBox="0 0 322 158" fill="none" xmlns="http://www.w3.org/2000/svg">
<path d="M21.7003 59.3744V21.8039H36.9665C41.624 21.8039 45.0913 22.7181 47.3683 24.5466C49.6453 26.3406 50.7838 29.1179 50.7838 32.8784C50.7838 36.6734 49.6453 39.4679 47.3683 41.2619C45.0913 43.0559 41.624 43.9529 36.9665 43.9529H25.4263V59.3744H21.7003ZM25.4263 40.3304H36.2938C40.0888 40.3304 42.797 39.8129 44.4185 38.7779C46.04 37.7084 46.8508 35.7246 46.8508 32.8266C46.8508 29.9631 46.04 27.9966 44.4185 26.9271C42.797 25.8576 40.0888 25.3229 36.2938 25.3229H25.4263V40.3304ZM54.686 59.3744V55.8036L75.4895 35.2071H55.6693V31.8434H79.8365V35.3106L59.0848 55.9071H80.561V59.3744H54.686Z" fill="black"/>
<path d="M291.501 20.7838C290.639 21.5504 290.207 22.5886 290.207 23.8983C290.207 25.2081 290.607 26.2303 291.405 26.965C292.22 27.6838 293.354 28.0431 294.807 28.0431C296.405 28.0431 297.634 27.6678 298.497 26.9171C299.375 26.1664 299.815 25.1043 299.815 23.7306C299.815 22.5167 299.383 21.5345 298.521 20.7838C297.674 20.0171 296.532 19.6338 295.095 19.6338C293.577 19.6338 292.38 20.0171 291.501 20.7838ZM290.734 31.4213C291.086 33.306 292.499 34.2483 294.975 34.2483C298.409 34.2483 300.126 31.9563 300.126 27.3723V26.8931C299.024 28.7299 297.187 29.6483 294.616 29.6483C292.731 29.6483 291.238 29.1293 290.135 28.0911C289.033 27.0369 288.482 25.6313 288.482 23.8744C288.482 22.0695 289.081 20.64 290.279 19.5858C291.493 18.5157 293.13 17.9806 295.191 17.9806C297.491 17.9806 299.184 18.6994 300.27 20.1369C301.356 21.5744 301.899 23.7865 301.899 26.7733C301.899 29.8081 301.324 32.0761 300.174 33.5775C299.024 35.0789 297.267 35.8296 294.903 35.8296C293.21 35.8296 291.828 35.4223 290.758 34.6077C289.688 33.7772 289.105 32.715 289.009 31.4213H290.734Z" fill="black"/>
<path d="M191.667 84.2488V71.527H186.54V70.0895H188.265C189.59 70.0895 190.533 69.8499 191.092 69.3707C191.651 68.8756 191.938 68.037 191.954 66.8551H193.368V84.2488H191.667ZM201.587 84.2488C202.673 78.6426 205.205 73.5554 209.182 68.9874H198.233V67.2863H210.691V69.2749C206.746 74.1624 204.406 79.1537 203.671 84.2488H201.587ZM215.443 84.2488V82.1165H217.384V84.9436C217.384 85.8061 217.24 86.469 216.953 86.9322C216.681 87.4113 216.178 87.7707 215.443 88.0103V86.8843C216.018 86.5808 216.306 86.0457 216.306 85.279V84.2488H215.443ZM227.019 84.2488V71.527H221.892V70.0895H223.617C224.943 70.0895 225.885 69.8499 226.444 69.3707C227.003 68.8756 227.291 68.037 227.307 66.8551H228.72V84.2488H227.019ZM236.94 84.2488C238.026 78.6426 240.557 73.5554 244.534 68.9874H233.585V67.2863H246.044V69.2749C242.099 74.1624 239.759 79.1537 239.024 84.2488H236.94ZM251.85 69.6582C250.987 70.4249 250.556 71.4631 250.556 72.7728C250.556 74.0825 250.955 75.1047 251.754 75.8395C252.569 76.5582 253.703 76.9176 255.156 76.9176C256.753 76.9176 257.983 76.5422 258.846 75.7915C259.724 75.0409 260.163 73.9787 260.163 72.6051C260.163 71.3912 259.732 70.4089 258.87 69.6582C258.023 68.8915 256.881 68.5082 255.444 68.5082C253.926 68.5082 252.728 68.8915 251.85 69.6582ZM251.083 80.2957C251.435 82.1804 252.848 83.1228 255.324 83.1228C258.758 83.1228 260.475 80.8308 260.475 76.2468V75.7676C259.373 77.6044 257.536 78.5228 254.965 78.5228C253.08 78.5228 251.586 78.0037 250.484 76.9655C249.382 75.9113 248.831 74.5058 248.831 72.7488C248.831 70.944 249.43 69.5145 250.628 68.4603C251.842 67.3902 253.479 66.8551 255.54 66.8551C257.84 66.8551 259.533 67.5738 260.619 69.0113C261.705 70.4488 262.248 72.661 262.248 75.6478C262.248 78.6825 261.673 80.9506 260.523 82.452C259.373 83.9534 257.616 84.704 255.252 84.704C253.559 84.704 252.177 84.2968 251.107 83.4822C250.037 82.6516 249.454 81.5895 249.358 80.2957H251.083Z" fill="black"/>
<path d="M19.3102 136.957V119.563H26.3779C28.5341 119.563 30.1393 119.987 31.1935 120.833C32.2477 121.664 32.7748 122.95 32.7748 124.691C32.7748 126.448 32.2477 127.741 31.1935 128.572C30.1393 129.402 28.5341 129.818 26.3779 129.818H21.0352V136.957H19.3102ZM21.0352 128.141H26.0664C27.8234 128.141 29.0772 127.901 29.8279 127.422C30.5786 126.927 30.9539 126.008 30.9539 124.667C30.9539 123.341 30.5786 122.431 29.8279 121.935C29.0772 121.44 27.8234 121.193 26.0664 121.193H21.0352V128.141ZM35.8006 135.544C34.5548 134.282 33.9319 132.629 33.9319 130.584C33.9319 128.54 34.5548 126.895 35.8006 125.649C37.0624 124.387 38.7076 123.756 40.736 123.756C42.7805 123.756 44.4256 124.387 45.6715 125.649C46.9333 126.895 47.5642 128.54 47.5642 130.584C47.5642 132.629 46.9333 134.282 45.6715 135.544C44.4256 136.79 42.7805 137.412 40.736 137.412C38.7076 137.412 37.0624 136.79 35.8006 135.544ZM36.9985 126.799C36.0881 127.725 35.6329 128.987 35.6329 130.584C35.6329 132.182 36.0881 133.451 36.9985 134.394C37.9249 135.32 39.1708 135.783 40.736 135.783C42.3013 135.783 43.5392 135.312 44.4496 134.37C45.376 133.427 45.8392 132.166 45.8392 130.584C45.8392 129.003 45.376 127.741 44.4496 126.799C43.5392 125.857 42.3013 125.385 40.736 125.385C39.1708 125.385 37.9249 125.857 36.9985 126.799ZM49.3214 136.957V135.304L58.9526 125.769H49.7766V124.211H60.9651V125.817L51.3578 135.352H61.3005V136.957H49.3214ZM63.9708 136.957V124.187H65.6239V136.957H63.9708ZM63.9708 121.552V119.563H65.6239V121.552H63.9708ZM71.6988 133.555C71.6988 134.002 71.7068 134.322 71.7228 134.513C71.7387 134.705 71.7946 134.905 71.8905 135.112C71.9863 135.32 72.138 135.456 72.3457 135.52C72.5533 135.584 72.8408 135.616 73.2082 135.616C73.5755 135.616 74.0308 135.552 74.5738 135.424V136.885C73.8071 137.077 73.1124 137.173 72.4894 137.173C71.563 137.173 70.9162 136.909 70.5488 136.382C70.1974 135.839 70.0217 134.969 70.0217 133.771V125.577H67.8415V124.187H70.0217V120.45H71.6988V124.187H74.5978V125.577H71.6988V133.555ZM78.2102 136.957H76.5092V124.211H78.2102V126.32C78.5776 125.521 79.0967 124.898 79.7675 124.451C80.4543 123.988 81.205 123.756 82.0196 123.756C82.5786 123.756 83.1457 123.876 83.7207 124.116V125.721C83.1776 125.561 82.6745 125.481 82.2113 125.481C80.2467 125.481 78.913 126.559 78.2102 128.716V136.957ZM86.5483 135.544C85.3025 134.282 84.6796 132.629 84.6796 130.584C84.6796 128.54 85.3025 126.895 86.5483 125.649C87.8101 124.387 89.4552 123.756 91.4837 123.756C93.5282 123.756 95.1733 124.387 96.4191 125.649C97.6809 126.895 98.3118 128.54 98.3118 130.584C98.3118 132.629 97.6809 134.282 96.4191 135.544C95.1733 136.79 93.5282 137.412 91.4837 137.412C89.4552 137.412 87.8101 136.79 86.5483 135.544ZM87.7462 126.799C86.8358 127.725 86.3806 128.987 86.3806 130.584C86.3806 132.182 86.8358 133.451 87.7462 134.394C88.6726 135.32 89.9184 135.783 91.4837 135.783C93.049 135.783 94.2868 135.312 95.1973 134.37C96.1237 133.427 96.5868 132.166 96.5868 130.584C96.5868 129.003 96.1237 127.741 95.1973 126.799C94.2868 125.857 93.049 125.385 91.4837 125.385C89.9184 125.385 88.6726 125.857 87.7462 126.799ZM101.075 136.957V124.211H102.68V126.559C103.942 124.818 105.723 123.948 108.023 123.948C109.716 123.948 110.954 124.339 111.737 125.122C112.535 125.888 112.935 127.086 112.935 128.716V136.957H111.282V129.794C111.282 128.228 111.026 127.118 110.515 126.463C110.02 125.793 109.093 125.457 107.736 125.457C106.282 125.457 105.084 125.857 104.142 126.655C103.2 127.438 102.728 128.452 102.728 129.698V136.957H101.075Z" fill="black"/>
<rect x="0.758039" y="0.758039" width="320.484" height="155.651" stroke="black" stroke-width="1.51608"/>
</svg>
