<svg width="52" height="52" viewBox="0 0 52 52" fill="none" xmlns="http://www.w3.org/2000/svg">
<g clip-path="url(#clip0_254_141)">
<path d="M41.0233 1.48096H10.9578C5.61244 1.48096 1.27917 5.81423 1.27917 11.1596V41.2251C1.27917 46.5705 5.61244 50.9037 10.9578 50.9037H41.0233C46.3687 50.9037 50.702 46.5705 50.702 41.2251V11.1596C50.702 5.81423 46.3687 1.48096 41.0233 1.48096Z" fill="white" stroke="black" stroke-width="1.23557"/>
<path d="M25.9357 43.5844C17.1421 43.5844 15.0326 36.2564 15.077 32.5923C15.077 25.2644 17.2487 10.5952 25.9357 10.5419C34.6226 10.4886 36.9275 25.2201 36.9943 32.5923C36.972 36.2564 34.7293 43.5844 25.9357 43.5844Z" fill="white" stroke="black" stroke-width="1.23557" stroke-linecap="round" stroke-linejoin="round"/>
<path d="M25.952 37.3223C21.5153 37.3223 20.4509 33.6582 20.4734 31.8263C20.4734 28.1624 21.569 20.8277 25.952 20.8011C30.335 20.7745 31.498 28.1402 31.5316 31.8263C31.5203 33.6582 30.3887 37.3223 25.952 37.3223Z" fill="white" stroke="black" stroke-width="1.23557" stroke-linecap="round" stroke-linejoin="round"/>
</g>
<defs>
<clipPath id="clip0_254_141">
<rect width="50.6583" height="50.6583" fill="white" transform="translate(0.661377 0.863281)"/>
</clipPath>
</defs>
</svg>
