<svg width="380" height="620" viewBox="0 0 380 620" fill="none" xmlns="http://www.w3.org/2000/svg">
<path d="M168.465 251.063L150.201 151.565C137.77 163.559 127.757 166.376 124.304 166.285L150.201 261.422L168.465 251.063Z" fill="white" stroke="black" stroke-width="2.18077"/>
<path d="M215.352 250.949L233.616 147.747C246.046 160.188 256.059 163.11 259.512 163.015L233.616 261.693L215.352 250.949Z" fill="white" stroke="black" stroke-width="2.18077"/>
<path d="M216.442 362.941L234.706 466.142C247.137 453.701 257.15 450.779 260.603 450.874L234.706 352.196L216.442 362.941Z" fill="white" stroke="black" stroke-width="2.18077"/>
<path d="M170.1 372.753L151.836 475.954C139.406 463.514 129.392 460.592 125.939 460.686L151.836 362.009L170.1 372.753Z" fill="white" stroke="black" stroke-width="2.18077"/>
<path d="M158.651 504.849C158.651 538.358 133.671 565.366 103.042 565.366C72.4127 565.366 47.4319 538.358 47.4319 504.849C47.4319 471.34 72.4127 444.333 103.042 444.333C133.671 444.333 158.651 471.34 158.651 504.849Z" fill="white" stroke="black" stroke-width="2.18077"/>
<path d="M164.649 112.582C164.649 144.388 139.835 170.1 109.312 170.1C78.7883 170.1 53.9744 144.388 53.9744 112.582C53.9744 80.7768 78.7883 55.0645 109.312 55.0645C139.835 55.0645 164.649 80.7768 164.649 112.582Z" fill="white" stroke="black" stroke-width="2.18077"/>
<path d="M148.565 103.13C148.565 121.867 144.059 138.816 136.787 151.072C129.511 163.334 119.499 170.854 108.493 170.854C97.4876 170.854 87.4756 163.334 80.2002 151.072C72.9283 138.816 68.4218 121.867 68.4218 103.13C68.4218 84.3939 72.9283 67.4446 80.2002 55.1886C87.4756 42.9266 97.4876 35.4064 108.493 35.4064C119.499 35.4064 129.511 42.9266 136.787 55.1886C144.059 67.4446 148.565 84.3939 148.565 103.13Z" stroke="black" stroke-width="0.545194"/>
<path d="M121.851 103.13C121.851 121.895 120.356 138.875 117.943 151.158C116.737 157.302 115.303 162.256 113.718 165.668C112.925 167.375 112.102 168.681 111.261 169.556C110.421 170.432 109.587 170.854 108.766 170.854C107.945 170.854 107.111 170.432 106.271 169.556C105.43 168.681 104.607 167.375 103.814 165.668C102.229 162.256 100.795 157.302 99.5884 151.158C97.1756 138.875 95.6813 121.895 95.6813 103.13C95.6813 84.3656 97.1756 67.385 99.5884 55.102C100.795 48.9583 102.229 44.004 103.814 40.5921C104.607 38.8854 105.43 37.5794 106.271 36.704C107.111 35.8288 107.945 35.4064 108.766 35.4064C109.587 35.4064 110.421 35.8288 111.261 36.704C112.102 37.5794 112.925 38.8854 113.718 40.5921C115.303 44.004 116.737 48.9583 117.943 55.102C120.356 67.385 121.851 84.3656 121.851 103.13Z" stroke="black" stroke-width="0.545194"/>
<path d="M329.842 504.849C329.842 538.364 304.979 565.366 274.505 565.366C244.031 565.366 219.168 538.364 219.168 504.849C219.168 471.335 244.031 444.333 274.505 444.333C304.979 444.333 329.842 471.335 329.842 504.849Z" fill="white" stroke="black" stroke-width="2.18077"/>
<path d="M330.932 112.582C330.932 144.388 306.118 170.1 275.595 170.1C245.072 170.1 220.258 144.388 220.258 112.582C220.258 80.7768 245.072 55.0645 275.595 55.0645C306.118 55.0645 330.932 80.7768 330.932 112.582Z" fill="white" stroke="black" stroke-width="2.18077"/>
<path d="M312.669 103.13C312.669 121.867 308.163 138.816 300.891 151.072C293.615 163.334 283.603 170.854 272.598 170.854C261.592 170.854 251.58 163.334 244.304 151.072C237.032 138.816 232.526 121.867 232.526 103.13C232.526 84.3939 237.032 67.4446 244.304 55.1886C251.58 42.9266 261.592 35.4064 272.598 35.4064C283.603 35.4064 293.615 42.9266 300.891 55.1886C308.163 67.4446 312.669 84.3939 312.669 103.13Z" stroke="black" stroke-width="0.545194"/>
<path d="M285.955 103.13C285.955 121.895 284.461 138.875 282.048 151.158C280.841 157.302 279.407 162.256 277.822 165.668C277.03 167.375 276.206 168.681 275.365 169.556C274.525 170.432 273.691 170.854 272.87 170.854C272.049 170.854 271.215 170.432 270.375 169.556C269.534 168.681 268.711 167.375 267.918 165.668C266.334 162.256 264.9 157.302 263.693 151.158C261.28 138.875 259.786 121.895 259.786 103.13C259.786 84.3656 261.28 67.385 263.693 55.102C264.9 48.9583 266.334 44.004 267.918 40.5921C268.711 38.8854 269.534 37.5794 270.375 36.704C271.215 35.8288 272.049 35.4064 272.87 35.4064C273.691 35.4064 274.525 35.8288 275.365 36.704C276.206 37.5794 277.03 38.8854 277.822 40.5921C279.407 44.004 280.841 48.9583 282.048 55.102C284.461 67.385 285.955 84.3656 285.955 103.13Z" stroke="black" stroke-width="0.545194"/>
<path d="M306.844 23.5678C216.12 112.682 128.973 60.6987 96.7399 23.5678C85.71 21.4501 69.6898 23.1443 93.8486 46.8629C118.007 70.5815 180.706 94.6376 160.49 100.616L135.141 112.089C128.973 120.221 130.646 127.619 133.216 130.302L184.556 124.372H199.637L248.732 130.302C255.791 124.372 250.336 113.624 250.336 113.624C250.336 113.624 230.121 105.619 230.121 97.9472C230.121 89.2878 282.428 76.9354 315.197 46.8629C321.461 41.114 306.844 23.5678 306.844 23.5678Z" fill="white" stroke="black" stroke-width="2.18077"/>
<path d="M168.812 252.63L169.663 252.438V251.566V154.008C169.663 136.888 168.619 124.003 166.144 114.321C163.664 104.617 159.724 98.0455 153.883 93.6692C148.068 89.3126 140.506 87.2369 131.003 86.2288C121.91 85.2643 110.898 85.2659 97.7376 85.2679C97.5073 85.2679 97.2764 85.2679 97.0447 85.2679V37.3368C136.572 60.1278 176.706 65.9949 209.313 63.1673C225.841 61.7341 240.451 58.0657 252.082 53.222C262.721 48.7916 270.949 43.3427 275.839 37.6482C276.196 38.6211 276.619 39.7359 277.085 40.9651C279.442 47.1832 282.909 56.3286 284.64 64.8441C285.801 70.5521 286.124 75.7498 284.924 79.4653C284.334 81.2937 283.39 82.717 282.031 83.6924C280.67 84.6691 278.794 85.268 276.214 85.268C262.107 85.268 251.32 87.8221 243.059 92.1435C234.788 96.4704 229.109 102.538 225.18 109.461C217.507 122.981 216.517 139.781 215.727 153.177C215.711 153.434 215.696 153.689 215.681 153.943L215.679 153.976V154.008V251.566V252.438L216.53 252.63C248.702 259.873 271.589 281.224 271.589 306.032C271.589 330.84 248.702 352.191 216.53 359.435L215.679 359.626V360.498V462.431C215.679 478.83 221.365 499.306 231.713 515.703C241.793 531.675 256.444 543.985 274.776 544.599L266.185 574.783C225.014 557.34 189.485 556.287 163.652 559.642C150.62 561.334 140.063 564.147 132.502 566.537C128.914 567.671 126 568.71 123.828 569.484L123.488 569.606C122.381 570 121.499 570.312 120.83 570.526C120.496 570.633 120.231 570.71 120.028 570.759C119.846 570.803 119.759 570.814 119.737 570.816C119.723 570.813 119.649 570.797 119.502 570.722C119.316 570.627 119.075 570.468 118.781 570.229C118.191 569.751 117.477 569.029 116.675 568.094C115.075 566.228 113.214 563.618 111.415 560.695C109.617 557.775 107.897 554.569 106.571 551.521C105.437 548.915 104.613 546.477 104.254 544.453C123.177 541.488 139.401 529.528 150.935 514.22C162.686 498.625 169.663 479.435 169.663 462.431V360.498V359.626L168.812 359.435C136.64 352.191 113.753 330.84 113.753 306.032C113.753 281.224 136.64 259.873 168.812 252.63Z" fill="white" stroke="black" stroke-width="2.18077"/>
<path d="M144.749 514.3C144.749 533.927 140.241 551.682 132.968 564.522C125.689 577.369 115.677 585.242 104.677 585.242C93.6775 585.242 83.6648 577.369 76.3865 564.522C69.1128 551.682 64.6054 533.927 64.6054 514.3C64.6054 494.673 69.1128 476.918 76.3865 464.078C83.6648 451.231 93.6775 443.359 104.677 443.359C115.677 443.359 125.689 451.231 132.968 464.078C140.241 476.918 144.749 494.673 144.749 514.3Z" stroke="black" stroke-width="0.545194"/>
<path d="M118.034 514.3C118.034 533.954 116.54 551.74 114.127 564.606C112.92 571.041 111.485 576.232 109.9 579.807C109.106 581.596 108.282 582.965 107.441 583.883C106.599 584.802 105.766 585.242 104.95 585.242C104.133 585.242 103.3 584.802 102.459 583.883C101.617 582.965 100.793 581.596 99.9995 579.807C98.4139 576.232 96.9795 571.041 95.7725 564.606C93.3592 551.74 91.8649 533.954 91.8649 514.3C91.8649 494.646 93.3592 476.86 95.7725 463.994C96.9795 457.559 98.4139 452.368 99.9995 448.793C100.793 447.004 101.617 445.635 102.459 444.717C103.3 443.798 104.133 443.359 104.95 443.359C105.766 443.359 106.599 443.798 107.441 444.717C108.282 445.635 109.106 447.004 109.9 448.793C111.485 452.368 112.92 457.559 114.127 463.994C116.54 476.86 118.034 494.646 118.034 514.3Z" stroke="black" stroke-width="0.545194"/>
<path d="M139.57 547.375C139.57 586.233 108.554 617.705 70.33 617.705C32.1058 617.705 1.09039 586.233 1.09039 547.375C1.09039 508.517 32.1058 477.045 70.33 477.045C108.554 477.045 139.57 508.517 139.57 547.375Z" fill="white" stroke="black" stroke-width="2.18077"/>
<path d="M146.112 68.6944C146.112 105.991 114.665 136.298 75.7819 136.298C36.8994 136.298 5.45196 105.991 5.45196 68.6944C5.45196 31.3973 36.8994 1.09039 75.7819 1.09039C114.665 1.09039 146.112 31.3973 146.112 68.6944Z" fill="white" stroke="black" stroke-width="2.18077"/>
<path d="M314.304 514.3C314.304 533.927 309.797 551.682 302.523 564.522C295.245 577.369 285.232 585.242 274.233 585.242C263.233 585.242 253.22 577.369 245.942 564.522C238.668 551.682 234.161 533.927 234.161 514.3C234.161 494.673 238.668 476.918 245.942 464.078C253.22 451.231 263.233 443.359 274.233 443.359C285.232 443.359 295.245 451.231 302.523 464.078C309.797 476.918 314.304 494.673 314.304 514.3Z" stroke="black" stroke-width="0.545194"/>
<path d="M287.59 514.3C287.59 533.954 286.095 551.74 283.682 564.606C282.475 571.041 281.041 576.232 279.455 579.807C278.662 581.596 277.837 582.965 276.996 583.883C276.154 584.802 275.321 585.242 274.505 585.242C273.689 585.242 272.856 584.802 272.014 583.883C271.173 582.965 270.348 581.596 269.555 579.807C267.969 576.232 266.535 571.041 265.328 564.606C262.915 551.74 261.42 533.954 261.42 514.3C261.42 494.646 262.915 476.86 265.328 463.994C266.535 457.559 267.969 452.368 269.555 448.793C270.348 447.004 271.173 445.635 272.014 444.717C272.856 443.798 273.689 443.359 274.505 443.359C275.321 443.359 276.154 443.798 276.996 444.717C277.837 445.635 278.662 447.004 279.455 448.793C281.041 452.368 282.475 457.559 283.682 463.994C286.095 476.86 287.59 494.646 287.59 514.3Z" stroke="black" stroke-width="0.545194"/>
<path d="M378.364 547.919C378.364 586.766 346.994 618.249 308.307 618.249C269.619 618.249 238.249 586.766 238.249 547.919C238.249 509.073 269.619 477.589 308.307 477.589C346.994 477.589 378.364 509.073 378.364 547.919Z" fill="white" stroke="black" stroke-width="2.18077"/>
<path d="M378.91 68.6944C378.91 106.007 347.934 136.298 309.67 136.298C271.406 136.298 240.43 106.007 240.43 68.6944C240.43 31.3818 271.406 1.09039 309.67 1.09039C347.934 1.09039 378.91 31.3818 378.91 68.6944Z" fill="white" stroke="black" stroke-width="2.18077"/>
<path d="M190.272 528.293H194.089C198.304 528.293 201.721 531.71 201.721 535.925V550.46C201.721 554.676 198.304 558.093 194.089 558.093H190.272C186.057 558.093 182.64 554.676 182.64 550.46V535.925C182.64 531.71 186.057 528.293 190.272 528.293Z" fill="#5B5B5B" stroke="black" stroke-width="1.09039"/>
<path d="M138.48 551.737C138.48 554.17 136.749 556.609 133.321 558.925C129.912 561.228 124.944 563.323 118.755 565.091C106.385 568.625 89.264 570.819 70.3304 570.819C51.3968 570.819 34.276 568.625 21.9059 565.091C15.7171 563.323 10.7485 561.228 7.33951 558.925C3.91153 556.609 2.18118 554.17 2.18118 551.737C2.18118 549.304 3.91153 546.865 7.33951 544.549C10.7485 542.246 15.7171 540.151 21.9059 538.383C34.276 534.848 51.3968 532.655 70.3304 532.655C89.264 532.655 106.385 534.848 118.755 538.383C124.944 540.151 129.912 542.246 133.321 544.549C136.749 546.865 138.48 549.304 138.48 551.737Z" fill="#E3E3E3" stroke="black" stroke-width="1.09039"/>
<path d="M377.274 552.281C377.274 554.711 375.525 557.151 372.054 559.468C368.603 561.771 363.575 563.867 357.312 565.635C344.793 569.17 327.467 571.363 308.307 571.363C289.147 571.363 271.821 569.17 259.303 565.635C253.04 563.867 248.011 561.771 244.56 559.468C241.089 557.151 239.34 554.711 239.34 552.281C239.34 549.851 241.089 547.412 244.56 545.095C248.011 542.792 253.04 540.696 259.303 538.928C271.821 535.393 289.147 533.199 308.307 533.199C327.467 533.199 344.793 535.393 357.312 538.928C363.575 540.696 368.603 542.792 372.054 545.095C375.525 547.412 377.274 549.851 377.274 552.281Z" fill="#E3E3E3" stroke="black" stroke-width="1.09039"/>
<path d="M377.82 68.421C377.82 70.7303 376.104 73.062 372.67 75.2847C369.261 77.4919 364.291 79.5004 358.101 81.1953C345.729 84.5829 328.606 86.685 309.67 86.685C290.735 86.685 273.612 84.5829 261.24 81.1953C255.05 79.5004 250.08 77.4919 246.671 75.2847C243.237 73.062 241.521 70.7303 241.521 68.421C241.521 66.1117 243.237 63.78 246.671 61.5573C250.08 59.35 255.05 57.3416 261.24 55.6467C273.612 52.2591 290.735 50.157 309.67 50.157C328.606 50.157 345.729 52.2591 358.101 55.6467C364.291 57.3416 369.261 59.35 372.67 61.5573C376.104 63.78 377.82 66.1117 377.82 68.421Z" fill="#E3E3E3" stroke="black" stroke-width="1.09039"/>
<path d="M145.022 68.421C145.022 70.7262 143.281 73.058 139.79 75.2826C136.325 77.4907 131.275 79.4996 124.986 81.1947C112.415 84.5828 95.0192 86.685 75.7823 86.685C56.5455 86.685 39.1493 84.5828 26.5789 81.1947C20.2898 79.4996 15.2396 77.4907 11.7746 75.2826C8.28365 73.058 6.54275 70.7262 6.54275 68.421C6.54275 66.1158 8.28365 63.784 11.7746 61.5594C15.2396 59.3513 20.2898 57.3424 26.5789 55.6473C39.1493 52.2592 56.5455 50.157 75.7823 50.157C95.0192 50.157 112.415 52.2592 124.986 55.6473C131.275 57.3424 136.325 59.3513 139.79 61.5594C143.281 63.784 145.022 66.1158 145.022 68.421Z" fill="#E3E3E3" stroke="black" stroke-width="1.09039"/>
<path d="M114.124 547.534C114.124 567.158 109.299 584.911 101.513 597.749C93.724 610.592 83.0008 618.476 71.2061 618.476C59.4113 618.476 48.6881 610.592 40.8991 597.749C33.1131 584.911 28.2885 567.158 28.2885 547.534C28.2885 527.911 33.1131 510.158 40.8991 497.32C48.6881 484.477 59.4113 476.593 71.2061 476.593C83.0008 476.593 93.724 484.477 101.513 497.32C109.299 510.158 114.124 527.911 114.124 547.534Z" stroke="black" stroke-width="0.545194"/>
<path d="M85.5251 547.534C85.5251 567.187 83.9254 584.972 81.3422 597.836C80.0501 604.271 78.5148 609.461 76.8179 613.035C75.9692 614.823 75.0867 616.192 74.1855 617.111C73.2847 618.029 72.3866 618.476 71.4982 618.476C70.6097 618.476 69.7117 618.029 68.8109 617.111C67.9096 616.192 67.0272 614.823 66.1785 613.035C64.4816 609.461 62.9463 604.271 61.6542 597.836C59.071 584.972 57.4713 567.187 57.4713 547.534C57.4713 527.881 59.071 510.097 61.6542 497.232C62.9463 490.797 64.4816 485.608 66.1785 482.033C67.0272 480.245 67.9096 478.876 68.8109 477.958C69.7117 477.04 70.6097 476.593 71.4982 476.593C72.3866 476.593 73.2847 477.04 74.1855 477.958C75.0867 478.876 75.9692 480.245 76.8179 482.033C78.5148 485.608 80.0501 490.797 81.3422 497.232C83.9254 510.097 85.5251 527.881 85.5251 547.534Z" stroke="black" stroke-width="0.545194"/>
<path d="M351.431 547.534C351.431 567.158 346.551 584.91 338.674 597.748C330.795 610.59 319.946 618.476 308.011 618.476C296.077 618.476 285.228 610.59 277.349 597.748C269.472 584.91 264.592 567.158 264.592 547.534C264.592 527.911 269.472 510.159 277.349 497.321C285.228 484.479 296.077 476.593 308.011 476.593C319.946 476.593 330.795 484.479 338.674 497.321C346.551 510.159 351.431 527.911 351.431 547.534Z" stroke="black" stroke-width="0.545194"/>
<path d="M322.5 547.534C322.5 567.187 320.882 584.971 318.269 597.836C316.962 604.27 315.409 609.46 313.692 613.034C312.833 614.822 311.941 616.191 311.029 617.109C310.118 618.027 309.208 618.476 308.307 618.476C307.406 618.476 306.496 618.027 305.585 617.109C304.673 616.191 303.781 614.822 302.922 613.034C301.206 609.46 299.652 604.27 298.345 597.836C295.732 584.971 294.114 567.187 294.114 547.534C294.114 527.881 295.732 510.097 298.345 497.232C299.652 490.798 301.206 485.609 302.922 482.034C303.781 480.247 304.673 478.878 305.585 477.959C306.496 477.041 307.406 476.593 308.307 476.593C309.208 476.593 310.118 477.041 311.029 477.959C311.941 478.878 312.833 480.247 313.692 482.034C315.409 485.609 316.962 490.798 318.269 497.232C320.882 510.097 322.5 527.881 322.5 547.534Z" stroke="black" stroke-width="0.545194"/>
<path d="M119.073 68.5621C119.073 87.2943 114.174 104.24 106.27 116.495C98.3633 128.753 87.4731 136.286 75.4853 136.286C63.4975 136.286 52.6073 128.753 44.7008 116.495C36.7961 104.24 31.8981 87.2943 31.8981 68.5621C31.8981 49.8299 36.7961 32.8838 44.7008 20.6291C52.6073 8.37161 63.4975 0.838271 75.4853 0.838271C87.4731 0.838271 98.3633 8.37161 106.27 20.6291C114.174 32.8838 119.073 49.8299 119.073 68.5621Z" stroke="black" stroke-width="0.545194"/>
<path d="M90.0295 68.5621C90.0295 87.3256 88.4051 104.305 85.7823 116.586C84.4705 122.729 82.9119 127.682 81.1899 131.092C80.3286 132.798 79.4334 134.104 78.5188 134.98C77.6055 135.855 76.6908 136.286 75.7809 136.286C74.8711 136.286 73.9564 135.855 73.043 134.98C72.1285 134.104 71.2332 132.798 70.372 131.092C68.65 127.682 67.0913 122.729 65.7795 116.586C63.1568 104.305 61.5324 87.3256 61.5324 68.5621C61.5324 49.7986 63.1568 32.8195 65.7795 20.5383C67.0913 14.3955 68.65 9.44258 70.372 6.03203C71.2332 4.32632 72.1285 3.02023 73.043 2.14394C73.9564 1.26875 74.8711 0.838271 75.7809 0.838271C76.6908 0.838271 77.6055 1.26875 78.5188 2.14394C79.4334 3.02023 80.3286 4.32632 81.1899 6.03203C82.9119 9.44258 84.4705 14.3955 85.7823 20.5383C88.4051 32.8195 90.0295 49.7986 90.0295 68.5621Z" stroke="black" stroke-width="0.545194"/>
<path d="M352.296 67.9964C352.296 86.7294 347.472 103.676 339.688 115.931C331.902 128.189 321.179 135.72 309.378 135.72C297.577 135.72 286.854 128.189 279.068 115.931C271.284 103.676 266.461 86.7294 266.461 67.9964C266.461 49.2635 271.284 32.3168 279.068 20.0618C286.854 7.80363 297.577 0.272597 309.378 0.272597C321.179 0.272597 331.902 7.80363 339.688 20.0618C347.472 32.3168 352.296 49.2635 352.296 67.9964Z" stroke="black" stroke-width="0.545194"/>
<path d="M323.697 67.9964C323.697 86.7601 322.098 103.74 319.515 116.021C318.223 122.164 316.688 127.117 314.992 130.528C314.144 132.234 313.263 133.54 312.362 134.416C311.463 135.291 310.564 135.72 309.671 135.72C308.778 135.72 307.878 135.291 306.979 134.416C306.078 133.54 305.197 132.234 304.349 130.528C302.653 127.117 301.118 122.164 299.826 116.021C297.243 103.74 295.644 86.7601 295.644 67.9964C295.644 49.2327 297.243 32.2533 299.826 19.9718C301.118 13.8288 302.653 8.87564 304.349 5.46486C305.197 3.75897 306.078 2.45292 306.979 1.57682C307.878 0.70168 308.778 0.272597 309.671 0.272597C310.564 0.272597 311.463 0.70168 312.362 1.57682C313.263 2.45292 314.144 3.75897 314.992 5.46486C316.688 8.87564 318.223 13.8288 319.515 19.9718C322.098 32.2533 323.697 49.2327 323.697 67.9964Z" stroke="black" stroke-width="0.545194"/>
<path d="M235.796 271.779L216.442 261.048L259.512 116.672C284.864 138.698 309.943 135.753 319.483 135.753C306.399 158.063 235.796 271.779 235.796 271.779Z" fill="white" stroke="black" stroke-width="2.18077"/>
<path d="M146.112 267.963L167.06 257.324L126.327 116.672C100.316 136.844 79.326 136.844 68.4221 136.844C81.4715 159.2 146.112 267.963 146.112 267.963Z" fill="white" stroke="black" stroke-width="2.18077"/>
<path d="M149.928 341.293L173.372 350.494L122.123 500.489C96.4993 473.502 71.693 477.046 62.1521 477.046C75.2367 453.597 149.928 341.293 149.928 341.293Z" fill="white" stroke="black" stroke-width="2.18077"/>
<path d="M233.616 340.202L215.352 354.764L258.422 498.308C283.773 475.127 310.215 478.681 321.119 478.681C308.034 455.203 233.616 340.202 233.616 340.202Z" fill="white" stroke="black" stroke-width="2.18077"/>
<path d="M288.953 311.577C288.953 328.462 278.166 343.906 260.397 355.183C242.64 366.451 218.044 373.457 190.818 373.457C163.592 373.457 138.996 366.451 121.239 355.183C103.47 343.906 92.6832 328.462 92.6832 311.577C92.6832 294.692 103.47 279.248 121.239 267.972C138.996 256.703 163.592 249.698 190.818 249.698C218.044 249.698 242.64 256.703 260.397 267.972C278.166 279.248 288.953 294.692 288.953 311.577Z" fill="white" stroke="black" stroke-width="2.18077"/>
<path d="M287.862 314.851C287.862 315.811 287.311 316.831 286.069 317.899C284.831 318.963 282.973 320.015 280.529 321.032C275.645 323.064 268.544 324.906 259.73 326.457C242.109 329.558 217.745 331.479 190.818 331.479C163.891 331.479 139.526 329.558 121.906 326.457C113.091 324.906 105.991 323.064 101.107 321.032C98.6621 320.015 96.8041 318.963 95.5662 317.899C94.3245 316.831 93.7732 315.811 93.7732 314.851C93.7732 313.891 94.3245 312.871 95.5662 311.803C96.8041 310.739 98.6621 309.686 101.107 308.669C105.991 306.637 113.091 304.795 121.906 303.244C139.526 300.143 163.891 298.222 190.818 298.222C217.745 298.222 242.109 300.143 259.73 303.244C268.544 304.795 275.645 306.637 280.529 308.669C282.973 309.686 284.831 310.739 286.069 311.803C287.311 312.871 287.862 313.891 287.862 314.851Z" fill="#E3E3E3" stroke="black" stroke-width="1.09039"/>
<path d="M218.35 311.577C218.35 328.937 215.243 344.64 210.23 355.994C207.723 361.671 204.745 366.248 201.452 369.402C198.161 372.555 194.568 374.275 190.818 374.275C187.068 374.275 183.475 372.555 180.184 369.402C176.891 366.248 173.913 361.671 171.406 355.994C166.393 344.64 163.286 328.937 163.286 311.577C163.286 294.217 166.393 278.514 171.406 267.161C173.913 261.484 176.891 256.907 180.184 253.753C183.475 250.6 187.068 248.88 190.818 248.88C194.568 248.88 198.161 250.6 201.452 253.753C204.745 256.907 207.723 261.484 210.23 267.161C215.243 278.514 218.35 294.217 218.35 311.577Z" stroke="black" stroke-width="0.545194"/>
<path d="M253.242 311.577C253.242 346.201 224.809 374.275 189.727 374.275C154.645 374.275 126.212 346.201 126.212 311.577C126.212 276.954 154.645 248.88 189.727 248.88C224.809 248.88 253.242 276.954 253.242 311.577Z" stroke="black" stroke-width="0.545194"/>
<rect x="178.006" y="373.73" width="27.8049" height="137.389" fill="#E7E7E7" stroke="black" stroke-width="0.545194" stroke-dasharray="10.9 10.9"/>
<rect x="179.096" y="87.5036" width="27.8049" height="162.468" fill="#E7E7E7" stroke="black" stroke-width="0.545194" stroke-dasharray="10.9 10.9"/>
<path d="M206.901 249.648V312.2C206.885 312.216 206.865 312.234 206.842 312.254C206.748 312.339 206.597 312.463 206.382 312.614C205.952 312.916 205.264 313.325 204.243 313.737C202.203 314.56 198.831 315.394 193.544 315.394C188.257 315.394 184.608 314.56 182.288 313.733C181.128 313.319 180.3 312.907 179.764 312.601C179.496 312.447 179.301 312.321 179.175 312.233C179.145 312.212 179.119 312.194 179.096 312.177V249.648C179.202 249.628 179.351 249.6 179.548 249.569C180.019 249.493 180.762 249.391 181.848 249.289C184.018 249.085 187.553 248.88 192.999 248.88C198.444 248.88 201.979 249.085 204.149 249.289C205.235 249.391 205.978 249.493 206.449 249.569C206.646 249.6 206.795 249.628 206.901 249.648Z" fill="#969696" stroke="black" stroke-width="0.545194"/>
<path d="M187.388 436.858C187.175 436.645 186.83 436.645 186.617 436.858L183.147 440.327C182.934 440.54 182.934 440.885 183.147 441.098C183.36 441.311 183.705 441.311 183.918 441.098L187.002 438.014L190.086 441.098C190.299 441.311 190.644 441.311 190.857 441.098C191.07 440.885 191.07 440.54 190.857 440.327L187.388 436.858ZM187.547 462.186V437.243H186.457V462.186H187.547Z" fill="black"/>
<path d="M197.201 462.572C196.989 462.785 196.643 462.785 196.43 462.572L192.961 459.102C192.748 458.89 192.748 458.544 192.961 458.331C193.174 458.119 193.519 458.119 193.732 458.331L196.816 461.416L199.9 458.331C200.113 458.119 200.458 458.119 200.671 458.331C200.884 458.544 200.884 458.89 200.671 459.102L197.201 462.572ZM197.361 437.244V462.187H196.271V437.244H197.361Z" fill="black"/>
<path d="M189.569 158.266C189.356 158.053 189.011 158.053 188.798 158.266L185.328 161.735C185.115 161.948 185.115 162.294 185.328 162.506C185.541 162.719 185.886 162.719 186.099 162.506L189.183 159.422L192.267 162.506C192.48 162.719 192.825 162.719 193.038 162.506C193.251 162.294 193.251 161.948 193.038 161.735L189.569 158.266ZM189.728 183.594V158.651H188.638V183.594H189.728Z" fill="black"/>
<path d="M199.382 183.98C199.169 184.193 198.824 184.193 198.611 183.98L195.141 180.511C194.929 180.298 194.929 179.953 195.141 179.74C195.354 179.527 195.7 179.527 195.913 179.74L198.997 182.824L202.081 179.74C202.294 179.527 202.639 179.527 202.852 179.74C203.065 179.953 203.065 180.298 202.852 180.511L199.382 183.98ZM199.542 158.652V183.595H198.451V158.652H199.542Z" fill="black"/>
<path d="M188.479 272.211C188.266 271.998 187.921 271.998 187.708 272.211L184.238 275.68C184.025 275.893 184.025 276.238 184.238 276.451C184.451 276.664 184.796 276.664 185.009 276.451L188.093 273.367L191.177 276.451C191.39 276.664 191.735 276.664 191.948 276.451C192.161 276.238 192.161 275.893 191.948 275.68L188.479 272.211ZM188.638 297.539V272.596H187.548V297.539H188.638Z" fill="black"/>
<path d="M198.292 297.925C198.08 298.138 197.734 298.138 197.521 297.925L194.052 294.455C193.839 294.243 193.839 293.897 194.052 293.684C194.265 293.472 194.61 293.472 194.823 293.684L197.907 296.769L200.991 293.684C201.204 293.472 201.549 293.472 201.762 293.684C201.975 293.897 201.975 294.243 201.762 294.455L198.292 297.925ZM198.452 272.597V297.54H197.362V272.597H198.452Z" fill="black"/>
</svg>
