<svg width="51" height="52" viewBox="0 0 51 52" fill="none" xmlns="http://www.w3.org/2000/svg">
<g clip-path="url(#clip0_254_110)">
<path d="M40.7035 1.52307H10.638C5.29262 1.52307 0.959351 5.85634 0.959351 11.2017V41.2672C0.959351 46.6126 5.29262 50.9458 10.638 50.9458H40.7035C46.0489 50.9458 50.3821 46.6126 50.3821 41.2672V11.2017C50.3821 5.85634 46.0489 1.52307 40.7035 1.52307Z" fill="white" stroke="black" stroke-width="1.23557"/>
<path d="M25.6707 7.90686C25.6709 7.93472 25.6709 7.96277 25.6709 7.99098C25.7232 21.3543 38.2441 26.3376 43.8953 26.4404C30.7159 26.4404 25.8422 38.7961 25.6707 44.3562C25.6707 30.888 13.4506 26.4369 7.70455 26.4373C7.61874 26.4388 7.53258 26.4398 7.44604 26.4404C7.53066 26.4383 7.61684 26.4373 7.70455 26.4373C21.0303 26.1968 25.659 13.6589 25.6709 7.99098C25.6707 7.96298 25.6707 7.93493 25.6707 7.90686Z" fill="white"/>
<path d="M25.6707 7.90686C25.7051 13.5699 21.0373 26.358 7.44604 26.4404C13.0747 26.303 25.6707 30.6825 25.6707 44.3562C25.8422 38.7961 30.7159 26.4404 43.8953 26.4404C38.2323 26.3374 25.6707 21.3334 25.6707 7.90686Z" stroke="black" stroke-width="1.23557" stroke-linejoin="round"/>
</g>
<defs>
<clipPath id="clip0_254_110">
<rect width="50.6583" height="50.6583" fill="white" transform="translate(0.341553 0.905273)"/>
</clipPath>
</defs>
</svg>
