<svg width="51" height="51" viewBox="0 0 51 51" fill="none" xmlns="http://www.w3.org/2000/svg">
<g clip-path="url(#clip0_254_126)">
<path d="M40.3619 0.617432H10.2964C4.95107 0.617432 0.617798 4.9507 0.617798 10.2961V40.3616C0.617798 45.7069 4.95107 50.0402 10.2964 50.0402H40.3619C45.7073 50.0402 50.0406 45.7069 50.0406 40.3616V10.2961C50.0406 4.9507 45.7073 0.617432 40.3619 0.617432Z" fill="white" stroke="black" stroke-width="1.23557"/>
<path d="M15.9594 28.4177C18.1772 28.4177 19.975 26.6198 19.975 24.4021C19.975 22.1843 18.1772 20.3865 15.9594 20.3865C13.7417 20.3865 11.9438 22.1843 11.9438 24.4021C11.9438 26.6198 13.7417 28.4177 15.9594 28.4177Z" fill="white" stroke="black" stroke-width="1.23557"/>
<path d="M30.6833 27.1822C35.1188 27.1822 38.7145 23.5865 38.7145 19.151C38.7145 14.7154 35.1188 11.1198 30.6833 11.1198C26.2478 11.1198 22.6521 14.7154 22.6521 19.151C22.6521 23.5865 26.2478 27.1822 30.6833 27.1822Z" fill="white" stroke="black" stroke-width="1.23557"/>
<path d="M26.0499 39.3318C28.7226 39.3318 30.8892 37.1652 30.8892 34.4925C30.8892 31.8198 28.7226 29.6532 26.0499 29.6532C23.3772 29.6532 21.2106 31.8198 21.2106 34.4925C21.2106 37.1652 23.3772 39.3318 26.0499 39.3318Z" fill="white" stroke="black" stroke-width="1.23557"/>
</g>
<defs>
<clipPath id="clip0_254_126">
<rect width="50.6583" height="50.6583" fill="white"/>
</clipPath>
</defs>
</svg>
