<svg width="51" height="52" viewBox="0 0 51 52" fill="none" xmlns="http://www.w3.org/2000/svg">
<g clip-path="url(#clip0_254_132)">
<path d="M40.3619 1.13977H10.2964C4.95107 1.13977 0.617798 5.47304 0.617798 10.8184V40.8839C0.617798 46.2293 4.95107 50.5625 10.2964 50.5625H40.3619C45.7073 50.5625 50.0406 46.2293 50.0406 40.8839V10.8184C50.0406 5.47304 45.7073 1.13977 40.3619 1.13977Z" fill="white" stroke="black" stroke-width="1.23557"/>
<path d="M38.0953 20.6337C38.2193 27.425 29.7904 34.6459 25.5607 37.4074C21.2277 34.5777 12.5616 27.2613 12.5616 20.6337C12.5616 12.3492 23.2699 12.1811 25.5607 20.6337C27.6974 12.2841 37.9407 12.1446 38.0953 20.6337Z" fill="white" stroke="black" stroke-width="1.23557" stroke-linecap="round" stroke-linejoin="round"/>
</g>
<defs>
<clipPath id="clip0_254_132">
<rect width="50.6583" height="50.6583" fill="white" transform="translate(0 0.521484)"/>
</clipPath>
</defs>
</svg>
