<svg width="51" height="52" viewBox="0 0 51 52" fill="none" xmlns="http://www.w3.org/2000/svg">
<g clip-path="url(#clip0_254_136)">
<path d="M40.3619 1.32019H10.2964C4.95107 1.32019 0.617798 5.65346 0.617798 10.9988V41.0643C0.617798 46.4097 4.95107 50.743 10.2964 50.743H40.3619C45.7073 50.743 50.0406 46.4097 50.0406 41.0643V10.9988C50.0406 5.65346 45.7073 1.32019 40.3619 1.32019Z" fill="white" stroke="black" stroke-width="1.23557"/>
<path d="M25.4322 39.211C32.7678 39.211 38.7145 33.2643 38.7145 25.9286C38.7145 18.593 32.7678 12.6462 25.4322 12.6462C18.0965 12.6462 12.1498 18.593 12.1498 25.9286C12.1498 33.2643 18.0965 39.211 25.4322 39.211Z" fill="white" stroke="black" stroke-width="1.23557"/>
<path d="M25.3292 31.7976C28.5137 31.7976 31.0952 29.2161 31.0952 26.0316C31.0952 22.8471 28.5137 20.2656 25.3292 20.2656C22.1448 20.2656 19.5632 22.8471 19.5632 26.0316C19.5632 29.2161 22.1448 31.7976 25.3292 31.7976Z" fill="white" stroke="black" stroke-width="1.23557"/>
</g>
<defs>
<clipPath id="clip0_254_136">
<rect width="50.6583" height="50.6583" fill="white" transform="translate(0 0.702148)"/>
</clipPath>
</defs>
</svg>
