<svg width="51" height="51" viewBox="0 0 51 51" fill="none" xmlns="http://www.w3.org/2000/svg">
<g clip-path="url(#clip0_254_115)">
<path d="M40.6444 0.618164H10.5789C5.23354 0.618164 0.900269 4.95143 0.900269 10.2968V40.3623C0.900269 45.7077 5.23354 50.0409 10.5789 50.0409H40.6444C45.9898 50.0409 50.323 45.7077 50.323 40.3623V10.2968C50.323 4.95143 45.9898 0.618164 40.6444 0.618164Z" fill="white" stroke="black" stroke-width="1.23557"/>
<path fill-rule="evenodd" clip-rule="evenodd" d="M13.4648 20.0326C13.4629 19.9451 13.4619 19.8574 13.4619 19.7695C13.4619 13.2869 18.7171 8.03162 25.1998 8.03162C31.6554 8.03162 36.8938 13.2432 36.9375 19.6886C41.3886 21.3566 44.5571 25.6502 44.5571 30.6837C44.5571 37.1663 39.3018 42.4216 32.8191 42.4216C30.1021 42.4216 27.6009 41.4985 25.6117 39.9488C23.6224 41.4985 21.1212 42.4216 18.4042 42.4216C11.9215 42.4216 6.66626 37.1663 6.66626 30.6837C6.66626 25.9655 9.45006 21.8976 13.4648 20.0326ZM28.8532 29.6191C27.7154 30.0412 26.4846 30.2719 25.1998 30.2719C24.2111 30.2719 23.2542 30.1351 22.3471 29.8798C22.5505 27.1924 23.7653 24.7876 25.6117 23.0448C27.3981 24.7312 28.5933 27.0371 28.8532 29.6191ZM30.0354 29.0948C29.6736 26.421 28.4115 24.0331 26.5643 22.2462C28.3116 20.9489 30.4757 20.1814 32.8191 20.1814C33.8078 20.1814 34.7648 20.318 35.6719 20.5734C35.3908 24.2874 33.1779 27.462 30.0354 29.0948ZM28.904 30.9109C27.7397 31.298 26.4943 31.5074 25.1998 31.5074C24.2087 31.5074 23.2464 31.3847 22.3271 31.1534C22.4513 33.9753 23.6891 36.5078 25.6117 38.3226C27.5892 36.4561 28.8421 33.8301 28.904 30.9109ZM21.1443 29.4601C21.4365 26.6389 22.728 24.1142 24.659 22.2462C22.9117 20.9489 20.7476 20.1814 18.4042 20.1814C17.1194 20.1814 15.8886 20.4121 14.7508 20.8342C15.1434 24.734 17.6695 28.0044 21.1443 29.4601ZM13.5685 21.3585C14.155 25.6922 17.1068 29.2752 21.0814 30.7647C21.1037 34.0443 22.4708 37.0045 24.659 39.1212C22.9117 40.4186 20.7476 41.1861 18.4042 41.1861C12.6039 41.1861 7.90183 36.4841 7.90183 30.6837C7.90183 26.6271 10.2016 23.1078 13.5685 21.3585ZM14.6999 19.5423C14.8208 13.8469 19.4754 9.26719 25.1998 9.26719C30.8426 9.26719 35.4462 13.7175 35.6918 19.2999C34.7726 19.0686 33.8103 18.9458 32.8191 18.9458C30.1021 18.9458 27.6009 19.8689 25.6117 21.4186C23.6224 19.8689 21.1212 18.9458 18.4042 18.9458C17.1098 18.9458 15.8643 19.1553 14.6999 19.5423ZM36.8747 20.9932C40.6613 22.5796 43.3215 26.3211 43.3215 30.6837C43.3215 36.4841 38.6195 41.1861 32.8191 41.1861C30.4757 41.1861 28.3116 40.4186 26.5643 39.1212C28.7704 36.987 30.1421 33.9957 30.1421 30.6837C30.1421 30.5958 30.141 30.5081 30.1392 30.4208C33.8022 28.719 36.4408 25.1834 36.8747 20.9932Z" fill="black"/>
<path d="M24.659 22.2462C22.728 24.1142 21.4364 26.6389 21.1442 29.4601C17.6695 28.0044 15.1434 24.7341 14.7507 20.8342C15.8885 20.4121 17.1194 20.1814 18.4041 20.1814C20.7475 20.1814 22.9117 20.9489 24.659 22.2462Z" fill="white"/>
<path d="M30.0353 29.0948C29.6735 26.421 28.4114 24.0331 26.5642 22.2462C28.3115 20.9489 30.4756 20.1814 32.8191 20.1814C33.8077 20.1814 34.7647 20.318 35.6718 20.5735C35.3907 24.2874 33.1778 27.462 30.0353 29.0948Z" fill="white"/>
<path d="M25.1998 30.272C26.4846 30.272 27.7154 30.0413 28.8531 29.6192C28.5933 27.0373 27.3981 24.7313 25.6116 23.0449C23.7653 24.7877 22.5505 27.1925 22.347 29.8799C23.2542 30.1352 24.2111 30.272 25.1998 30.272Z" fill="white"/>
<path d="M13.5685 21.3584C14.155 25.6922 17.1068 29.2751 21.0815 30.7646C21.1037 34.0442 22.4709 37.0044 24.6591 39.1211C22.9118 40.4185 20.7476 41.186 18.4042 41.186C12.6039 41.186 7.90186 36.484 7.90186 30.6837C7.90186 26.6271 10.2017 23.1078 13.5685 21.3584Z" fill="white"/>
<path d="M25.1998 31.5073C26.4943 31.5073 27.7398 31.2979 28.9041 30.9108C28.8421 33.83 27.5892 36.456 25.6117 38.3225C23.6892 36.5077 22.4513 33.9752 22.3271 31.1534C23.2464 31.3846 24.2087 31.5073 25.1998 31.5073Z" fill="white"/>
<path d="M36.8746 20.9933C40.6612 22.5798 43.3214 26.3213 43.3214 30.6839C43.3214 36.4842 38.6195 41.1862 32.8191 41.1862C30.4756 41.1862 28.3115 40.4187 26.5642 39.1214C28.7703 36.9871 30.142 33.9958 30.142 30.6839C30.142 30.5959 30.141 30.5082 30.1391 30.4209C33.8022 28.7191 36.4407 25.1835 36.8746 20.9933Z" fill="white"/>
<path d="M25.1998 9.26721C19.4754 9.26721 14.8207 13.847 14.6998 19.5423C15.8643 19.1554 17.1097 18.9458 18.4041 18.9458C21.1211 18.9458 23.6223 19.8689 25.6116 21.4186C27.6009 19.8689 30.1021 18.9458 32.8191 18.9458C33.8102 18.9458 34.7725 19.0687 35.6918 19.2999C35.4461 13.7176 30.8426 9.26721 25.1998 9.26721Z" fill="white"/>
</g>
<defs>
<clipPath id="clip0_254_115">
<rect width="50.6583" height="50.6583" fill="white" transform="translate(0.282471)"/>
</clipPath>
</defs>
</svg>
